<svg width="822" height="203" xmlns="http://www.w3.org/2000/svg" xmlns:xlink="http://www.w3.org/1999/xlink" overflow="hidden"><defs><clipPath id="clip0"><rect x="32" y="66" width="822" height="203"/></clipPath></defs><g clip-path="url(#clip0)" transform="translate(-32 -66)"><rect x="130" y="83" width="155" height="34" fill="#4472C4"/><rect x="96" y="150" width="153" height="34" fill="#4472C4"/><rect x="61" y="215" width="153" height="33" fill="#4472C4"/><path d="M196.096 217.743 285.443 82.0204 313.411 100.432 224.064 236.154Z" fill="#4472C4" fill-rule="evenodd"/><rect x="235" y="150" width="83" height="34" fill="#4472C4"/><rect x="202" y="214" width="89" height="34" fill="#4472C4"/><path d="M263.708 230.245 316.398 150.206 344.366 168.617 291.676 248.656Z" fill="#4472C4" fill-rule="evenodd"/><rect x="311" y="150" width="83" height="34" fill="#4472C4"/><rect x="278" y="215" width="89" height="33" fill="#4472C4"/><path d="M339.673 230.305 436.607 83.0571 464.575 101.468 367.64 248.716Z" fill="#4472C4" fill-rule="evenodd"/><path d="M32.7241 230.179 129.575 83.0568 157.543 101.468 60.6916 248.59Z" fill="#4472C4" fill-rule="evenodd"/><rect x="402" y="150" width="83" height="34" fill="#4472C4"/><rect x="0" y="0" width="85.4368" height="33.4837" fill="#4472C4" transform="matrix(0.549855 0.83526 0.83526 -0.549855 387.151 175.742)"/><rect x="435" y="215" width="389" height="34" fill="#4472C4"/><text font-family="Arial,Arial_MSFontService,sans-serif" font-weight="400" font-size="96" transform="translate(496.755 189)">Spoiler</text></g></svg>